<svg width="151" height="19" viewBox="0 0 151 19" fill="none" xmlns="http://www.w3.org/2000/svg">
<path d="M8.48047 4.41797C7.37891 4.41797 6.51953 4.87109 5.90234 5.77734C5.28516 6.67578 4.97656 7.91797 4.97656 9.50391C4.97656 12.8008 6.23047 14.4492 8.73828 14.4492C9.49609 14.4492 10.2305 14.3438 10.9414 14.1328C11.6523 13.9219 12.3672 13.668 13.0859 13.3711V17.2852C11.6562 17.918 10.0391 18.2344 8.23438 18.2344C5.64844 18.2344 3.66406 17.4844 2.28125 15.9844C0.90625 14.4844 0.21875 12.3164 0.21875 9.48047C0.21875 7.70703 0.550781 6.14844 1.21484 4.80469C1.88672 3.46094 2.84766 2.42969 4.09766 1.71094C5.35547 0.984375 6.83203 0.621094 8.52734 0.621094C10.3789 0.621094 12.1484 1.02344 13.8359 1.82812L12.418 5.47266C11.7852 5.17578 11.1523 4.92578 10.5195 4.72266C9.88672 4.51953 9.20703 4.41797 8.48047 4.41797ZM25.2617 11.9531H18.3008L15.9102 18H14.5859L21.4766 0.796875H22.2383L28.9883 18H27.6406L25.2617 11.9531ZM18.7344 10.875H24.8633L22.5312 4.69922C22.3359 4.21484 22.1016 3.54297 21.8281 2.68359C21.6172 3.43359 21.3867 4.11328 21.1367 4.72266L18.7344 10.875ZM32.6211 18H31.4258V0.867188H40.8125V1.96875H32.6211V9.23438H40.3555V10.3477H32.6211V18ZM52.8359 18H43.4727V0.867188H52.8359V1.96875H44.668V8.44922H52.3789V9.55078H44.668V16.8984H52.8359V18ZM75.957 9.26953C75.957 12.1445 75.2031 14.3203 73.6953 15.7969C72.1875 17.2656 69.9727 18 67.0508 18H62.9492V0.867188H67.5781C70.3125 0.867188 72.3906 1.58203 73.8125 3.01172C75.2422 4.44141 75.957 6.52734 75.957 9.26953ZM74.6562 9.31641C74.6562 6.86328 74.0312 5.01953 72.7812 3.78516C71.5391 2.54297 69.7109 1.92188 67.2969 1.92188H64.1445V16.9453H66.9805C72.0977 16.9453 74.6562 14.4023 74.6562 9.31641ZM88.1445 11.9531H81.1836L78.793 18H77.4688L84.3594 0.796875H85.1211L91.8711 18H90.5234L88.1445 11.9531ZM81.6172 10.875H87.7461L85.4141 4.69922C85.2188 4.21484 84.9844 3.54297 84.7109 2.68359C84.5 3.43359 84.2695 4.11328 84.0195 4.72266L81.6172 10.875ZM98.7734 18H97.5664V1.99219H92V0.867188H104.34V1.99219H98.7734V18ZM115.145 11.9531H108.184L105.793 18H104.469L111.359 0.796875H112.121L118.871 18H117.523L115.145 11.9531ZM108.617 10.875H114.746L112.414 4.69922C112.219 4.21484 111.984 3.54297 111.711 2.68359C111.5 3.43359 111.27 4.11328 111.02 4.72266L108.617 10.875ZM128.33 18L124.604 8.77148H124.55C124.586 9.33659 124.604 9.91536 124.604 10.5078V18H123.935V8.00586H125.015L128.556 16.7969H128.597L132.138 8.00586H133.19V18H132.486V10.4258C132.486 9.89714 132.514 9.35026 132.568 8.78516H132.514L128.774 18H128.33ZM141.927 8.00586H142.686L138.946 18H138.331L134.605 8.00586H135.351L137.866 14.8076C138.249 15.833 138.507 16.6032 138.639 17.1182C138.73 16.7764 138.91 16.2454 139.179 15.5254L141.927 8.00586ZM150.116 10.877C150.116 11.8431 149.788 12.5837 149.132 13.0986C148.476 13.6136 147.546 13.8711 146.343 13.8711H144.798V18H144.101V8.00586H146.548C148.927 8.00586 150.116 8.96289 150.116 10.877ZM144.798 13.2695H146.172C147.298 13.2695 148.111 13.085 148.612 12.7158C149.114 12.3421 149.364 11.7383 149.364 10.9043C149.364 10.1341 149.127 9.56445 148.653 9.19531C148.179 8.82161 147.446 8.63477 146.452 8.63477H144.798V13.2695Z" fill="#0C0C0C"/>
</svg>
